<svg xmlns="http://www.w3.org/2000/svg" viewBox="0 0 100 100" role="img" aria-label="Woodcut panther mark">
  <rect width="100" height="100" fill="#F2EAD9"/>
  <g fill="#0E0B0A">
    <path d="M50 18c-13 0-22 8-25 18-2-3-6-4-10-3 2 4 5 7 8 9-2 6-1 14 3 20 5 9 15 14 24 14s19-5 24-14c4-6 5-14 3-20 3-2 6-5 8-9-4-1-8 0-10 3-3-10-12-18-25-18z"/>
    <path d="M30 35c0-3 1-5 2-6-2-1-4 0-5 2 0 2 1 3 3 4zm40 0c0-3-1-5-2-6 2-1 4 0 5 2 0 2-1 3-3 4z"/>
  </g>
  <circle cx="42" cy="46" r="3" fill="#B5221A"/>
  <circle cx="58" cy="46" r="3" fill="#B5221A"/>
  <path d="M44 58c2 1 4 1 6 0M44 62c2 1 6 1 12 0" stroke="#B5221A" stroke-width="1.2" fill="none" stroke-linecap="round"/>
</svg>
